<svg width="400" height="500" viewBox="0 0 400 500" fill="none" xmlns="http://www.w3.org/2000/svg">
<path d="M51.8518 269.841C52.91 270.9 53.9682 271.958 55.3791 272.663C55.3791 272.663 55.3792 272.663 55.7319 272.663C56.4374 273.369 57.4956 274.074 58.5538 274.78C64.5502 279.012 73.0158 283.245 83.9506 287.125C105.115 294.533 132.628 299.471 162.963 301.94C163.668 301.94 164.374 301.94 165.432 302.293C166.843 302.293 168.254 302.646 169.665 302.646C171.076 302.646 172.839 302.998 174.25 302.998C175.309 302.998 176.72 302.998 177.778 303.351C179.541 303.351 181.658 303.351 183.421 303.704C184.127 303.704 185.185 303.704 185.891 303.704C187.654 303.704 189.418 303.704 191.182 303.704C191.887 303.704 192.593 303.704 193.651 303.704C196.12 303.704 198.589 303.704 201.058 303.704C203.527 303.704 205.644 303.704 208.113 303.704C208.466 303.704 208.818 303.704 208.818 303.704C273.016 302.646 329.1 289.594 349.912 270.194C350.265 269.841 350.617 269.489 350.97 269.136C356.614 263.492 359.788 257.496 359.788 250.794C359.788 216.226 277.954 197.531 201.058 197.531C124.162 197.531 42.328 216.226 42.328 250.794C42.328 256.085 44.4444 262.787 51.4991 269.841C51.4991 269.489 51.4991 269.841 51.8518 269.841ZM200.705 240.212C257.496 240.212 309.347 250.088 332.981 264.903C331.922 265.608 330.511 266.314 329.453 267.019C328.395 267.372 327.69 268.078 326.631 268.43C321.34 270.899 314.638 273.721 307.231 275.838C306.878 275.838 306.526 276.191 305.82 276.191C304.762 276.543 303.351 276.896 302.293 277.249C278.307 283.951 246.208 288.536 211.993 289.242C211.64 289.242 211.287 289.242 210.935 289.242C207.407 289.242 204.233 289.242 200.705 289.242C197.531 289.242 194.356 289.242 191.182 289.242C190.476 289.242 189.418 289.242 188.712 289.242C186.243 289.242 183.421 289.242 180.952 288.889C180.247 288.889 179.894 288.889 179.189 288.889C158.73 287.831 139.683 285.714 122.399 282.54C122.046 282.54 122.046 282.54 121.693 282.54C119.224 282.187 117.108 281.482 114.638 281.129C113.933 281.129 113.58 280.776 112.875 280.776C111.111 280.423 109.347 280.071 107.584 279.718C100.529 277.954 94.1799 276.191 88.1834 274.074C80.776 271.605 74.7795 268.783 70.194 265.961C69.4885 265.608 68.783 265.256 68.0776 264.903C92.0635 250.088 143.915 240.212 200.705 240.212Z" fill="#111111"/>
</svg>
